<?xml version="1.0" encoding="UTF-8"?>
<svg xmlns="http://www.w3.org/2000/svg" xmlns:xlink="http://www.w3.org/1999/xlink" width="1000pt" height="1000pt" viewBox="0 0 1000 1000" version="1.1">
<g id="surface46520">
<path style=" stroke:none;fill-rule:nonzero;fill:rgb(5.098039%,5.098039%,5.098039%);fill-opacity:1;" d="M 990 500 C 990 629.957031 938.375 754.589844 846.480469 846.480469 C 754.589844 938.375 629.957031 990 500 990 C 370.042969 990 245.410156 938.375 153.519531 846.480469 C 61.625 754.589844 10 629.957031 10 500 C 10 370.042969 61.625 245.410156 153.519531 153.519531 C 245.410156 61.625 370.042969 10 500 10 C 629.957031 10 754.589844 61.625 846.480469 153.519531 C 938.375 245.410156 990 370.042969 990 500 Z M 990 500 "/>
<path style=" stroke:none;fill-rule:evenodd;fill:rgb(100%,100%,100%);fill-opacity:1;" d="M 570.976562 451.125 L 570.976562 344.875 L 594.773438 344.875 L 594.773438 451.125 "/>
<path style=" stroke:none;fill-rule:evenodd;fill:rgb(100%,100%,100%);fill-opacity:1;" d="M 572.675781 323.625 L 572.675781 259.875 L 593.074219 259.875 L 593.074219 323.625 "/>
<path style=" stroke:none;fill-rule:evenodd;fill:rgb(100%,100%,100%);fill-opacity:1;" d="M 593.5 239.898438 L 682.75 239.898438 L 682.75 258.601562 L 593.5 258.601562 "/>
<path style=" stroke:none;fill-rule:evenodd;fill:rgb(100%,100%,100%);fill-opacity:1;" d="M 696.613281 236.035156 L 709.417969 226.1875 L 735.019531 206.492188 L 745.386719 219.964844 L 732.582031 229.8125 L 706.980469 249.507812 "/>
<path style=" stroke:none;fill-rule:evenodd;fill:rgb(100%,100%,100%);fill-opacity:1;" d="M 599.875 334.25 C 599.875 343.640625 592.265625 351.25 582.875 351.25 C 573.484375 351.25 565.875 343.640625 565.875 334.25 C 565.875 324.859375 573.484375 317.25 582.875 317.25 C 592.265625 317.25 599.875 324.859375 599.875 334.25 Z M 599.875 334.25 L 591.375 334.25 C 591.375 338.945312 587.570312 342.75 582.875 342.75 C 578.179688 342.75 574.375 338.945312 574.375 334.25 C 574.375 329.554688 578.179688 325.75 582.875 325.75 C 587.570312 325.75 591.375 329.554688 591.375 334.25 Z M 599.875 334.25 "/>
<path style=" stroke:none;fill-rule:evenodd;fill:rgb(100%,100%,100%);fill-opacity:1;" d="M 599.875 249.25 C 599.875 258.640625 592.265625 266.25 582.875 266.25 C 573.484375 266.25 565.875 258.640625 565.875 249.25 C 565.875 239.859375 573.484375 232.25 582.875 232.25 C 592.265625 232.25 599.875 239.859375 599.875 249.25 Z M 599.875 249.25 L 591.375 249.25 C 591.375 253.945312 587.570312 257.75 582.875 257.75 C 578.179688 257.75 574.375 253.945312 574.375 249.25 C 574.375 244.554688 578.179688 240.75 582.875 240.75 C 587.570312 240.75 591.375 244.554688 591.375 249.25 Z M 599.875 249.25 "/>
<path style=" stroke:none;fill-rule:evenodd;fill:rgb(100%,100%,100%);fill-opacity:1;" d="M 710.375 249.25 C 710.375 258.640625 702.765625 266.25 693.375 266.25 C 683.984375 266.25 676.375 258.640625 676.375 249.25 C 676.375 239.859375 683.984375 232.25 693.375 232.25 C 702.765625 232.25 710.375 239.859375 710.375 249.25 Z M 710.375 249.25 L 701.875 249.25 C 701.875 253.945312 698.070312 257.75 693.375 257.75 C 688.679688 257.75 684.875 253.945312 684.875 249.25 C 684.875 244.554688 688.679688 240.75 693.375 240.75 C 698.070312 240.75 701.875 244.554688 701.875 249.25 Z M 710.375 249.25 "/>
<path style=" stroke:none;fill-rule:evenodd;fill:rgb(100%,100%,100%);fill-opacity:1;" d="M 769.875 206.75 C 769.875 218.484375 760.359375 228 748.625 228 C 736.890625 228 727.375 218.484375 727.375 206.75 C 727.375 195.015625 736.890625 185.5 748.625 185.5 C 760.359375 185.5 769.875 195.015625 769.875 206.75 Z M 769.875 206.75 L 759.25 206.75 C 759.25 212.617188 754.492188 217.375 748.625 217.375 C 742.757812 217.375 738 212.617188 738 206.75 C 738 200.882812 742.757812 196.125 748.625 196.125 C 754.492188 196.125 759.25 200.882812 759.25 206.75 Z M 769.875 206.75 "/>
<path style=" stroke:none;fill-rule:evenodd;fill:rgb(100%,100%,100%);fill-opacity:1;" d="M 515.726562 451.125 L 515.726562 302.375 L 539.523438 302.375 L 539.523438 451.125 "/>
<path style=" stroke:none;fill-rule:evenodd;fill:rgb(100%,100%,100%);fill-opacity:1;" d="M 517.425781 281.125 L 517.425781 217.375 L 537.824219 217.375 L 537.824219 281.125 "/>
<path style=" stroke:none;fill-rule:evenodd;fill:rgb(100%,100%,100%);fill-opacity:1;" d="M 533.355469 193.808594 L 563.753906 179.777344 L 624.558594 151.714844 L 632.394531 168.691406 L 601.996094 182.722656 L 541.191406 210.785156 "/>
<path style=" stroke:none;fill-rule:evenodd;fill:rgb(100%,100%,100%);fill-opacity:1;" d="M 544.625 291.75 C 544.625 301.140625 537.015625 308.75 527.625 308.75 C 518.234375 308.75 510.625 301.140625 510.625 291.75 C 510.625 282.359375 518.234375 274.75 527.625 274.75 C 537.015625 274.75 544.625 282.359375 544.625 291.75 Z M 544.625 291.75 L 536.125 291.75 C 536.125 296.445312 532.320312 300.25 527.625 300.25 C 522.929688 300.25 519.125 296.445312 519.125 291.75 C 519.125 287.054688 522.929688 283.25 527.625 283.25 C 532.320312 283.25 536.125 287.054688 536.125 291.75 Z M 544.625 291.75 "/>
<path style=" stroke:none;fill-rule:evenodd;fill:rgb(100%,100%,100%);fill-opacity:1;" d="M 544.625 206.75 C 544.625 216.140625 537.015625 223.75 527.625 223.75 C 518.234375 223.75 510.625 216.140625 510.625 206.75 C 510.625 197.359375 518.234375 189.75 527.625 189.75 C 537.015625 189.75 544.625 197.359375 544.625 206.75 Z M 544.625 206.75 L 536.125 206.75 C 536.125 211.445312 532.320312 215.25 527.625 215.25 C 522.929688 215.25 519.125 211.445312 519.125 206.75 C 519.125 202.054688 522.929688 198.25 527.625 198.25 C 532.320312 198.25 536.125 202.054688 536.125 206.75 Z M 544.625 206.75 "/>
<path style=" stroke:none;fill-rule:evenodd;fill:rgb(100%,100%,100%);fill-opacity:1;" d="M 659.375 155.75 C 659.375 167.484375 649.859375 177 638.125 177 C 626.390625 177 616.875 167.484375 616.875 155.75 C 616.875 144.015625 626.390625 134.5 638.125 134.5 C 649.859375 134.5 659.375 144.015625 659.375 155.75 Z M 659.375 155.75 L 648.75 155.75 C 648.75 161.617188 643.992188 166.375 638.125 166.375 C 632.257812 166.375 627.5 161.617188 627.5 155.75 C 627.5 149.882812 632.257812 145.125 638.125 145.125 C 643.992188 145.125 648.75 149.882812 648.75 155.75 Z M 659.375 155.75 "/>
<path style=" stroke:none;fill-rule:evenodd;fill:rgb(100%,100%,100%);fill-opacity:1;" d="M 570.976562 451.125 L 570.976562 344.875 L 594.773438 344.875 L 594.773438 451.125 "/>
<path style=" stroke:none;fill-rule:evenodd;fill:rgb(100%,100%,100%);fill-opacity:1;" d="M 593.5 324.050781 L 682.75 324.050781 L 682.75 344.449219 L 593.5 344.449219 "/>
<path style=" stroke:none;fill-rule:evenodd;fill:rgb(100%,100%,100%);fill-opacity:1;" d="M 696.097656 320.359375 L 721.699219 300.664062 L 734.503906 290.816406 L 745.902344 305.640625 L 720.300781 325.335938 L 707.496094 335.183594 "/>
<path style=" stroke:none;fill-rule:evenodd;fill:rgb(100%,100%,100%);fill-opacity:1;" d="M 759.25 283.25 L 793.25 283.25 L 793.25 300.25 L 759.25 300.25 "/>
<path style=" stroke:none;fill-rule:evenodd;fill:rgb(100%,100%,100%);fill-opacity:1;" d="M 599.875 334.25 C 599.875 343.640625 592.265625 351.25 582.875 351.25 C 573.484375 351.25 565.875 343.640625 565.875 334.25 C 565.875 324.859375 573.484375 317.25 582.875 317.25 C 592.265625 317.25 599.875 324.859375 599.875 334.25 Z M 599.875 334.25 L 591.375 334.25 C 591.375 338.945312 587.570312 342.75 582.875 342.75 C 578.179688 342.75 574.375 338.945312 574.375 334.25 C 574.375 329.554688 578.179688 325.75 582.875 325.75 C 587.570312 325.75 591.375 329.554688 591.375 334.25 Z M 599.875 334.25 "/>
<path style=" stroke:none;fill-rule:evenodd;fill:rgb(100%,100%,100%);fill-opacity:1;" d="M 710.375 334.25 C 710.375 343.640625 702.765625 351.25 693.375 351.25 C 683.984375 351.25 676.375 343.640625 676.375 334.25 C 676.375 324.859375 683.984375 317.25 693.375 317.25 C 702.765625 317.25 710.375 324.859375 710.375 334.25 Z M 710.375 334.25 L 701.875 334.25 C 701.875 338.945312 698.070312 342.75 693.375 342.75 C 688.679688 342.75 684.875 338.945312 684.875 334.25 C 684.875 329.554688 688.679688 325.75 693.375 325.75 C 698.070312 325.75 701.875 329.554688 701.875 334.25 Z M 710.375 334.25 "/>
<path style=" stroke:none;fill-rule:evenodd;fill:rgb(100%,100%,100%);fill-opacity:1;" d="M 765.625 291.75 C 765.625 301.140625 758.015625 308.75 748.625 308.75 C 739.234375 308.75 731.625 301.140625 731.625 291.75 C 731.625 282.359375 739.234375 274.75 748.625 274.75 C 758.015625 274.75 765.625 282.359375 765.625 291.75 Z M 765.625 291.75 L 757.125 291.75 C 757.125 296.445312 753.320312 300.25 748.625 300.25 C 743.929688 300.25 740.125 296.445312 740.125 291.75 C 740.125 287.054688 743.929688 283.25 748.625 283.25 C 753.320312 283.25 757.125 287.054688 757.125 291.75 Z M 765.625 291.75 "/>
<path style=" stroke:none;fill-rule:evenodd;fill:rgb(100%,100%,100%);fill-opacity:1;" d="M 825.125 291.75 C 825.125 303.484375 815.609375 313 803.875 313 C 792.140625 313 782.625 303.484375 782.625 291.75 C 782.625 280.015625 792.140625 270.5 803.875 270.5 C 815.609375 270.5 825.125 280.015625 825.125 291.75 Z M 825.125 291.75 L 814.5 291.75 C 814.5 297.617188 809.742188 302.375 803.875 302.375 C 798.007812 302.375 793.25 297.617188 793.25 291.75 C 793.25 285.882812 798.007812 281.125 803.875 281.125 C 809.742188 281.125 814.5 285.882812 814.5 291.75 Z M 825.125 291.75 "/>
<path style=" stroke:none;fill-rule:evenodd;fill:rgb(100%,100%,100%);fill-opacity:1;" d="M 570.976562 451.125 L 570.976562 344.875 L 594.773438 344.875 L 594.773438 451.125 "/>
<path style=" stroke:none;fill-rule:evenodd;fill:rgb(100%,100%,100%);fill-opacity:1;" d="M 593.5 324.050781 L 682.75 324.050781 L 682.75 344.449219 L 593.5 344.449219 "/>
<path style=" stroke:none;fill-rule:evenodd;fill:rgb(100%,100%,100%);fill-opacity:1;" d="M 707.398438 336.15625 L 739.59375 373.304688 L 771.789062 410.449219 L 803.980469 447.597656 L 789.851562 459.84375 L 757.65625 422.695312 L 725.460938 385.550781 L 693.269531 348.402344 "/>
<path style=" stroke:none;fill-rule:evenodd;fill:rgb(100%,100%,100%);fill-opacity:1;" d="M 599.875 334.25 C 599.875 343.640625 592.265625 351.25 582.875 351.25 C 573.484375 351.25 565.875 343.640625 565.875 334.25 C 565.875 324.859375 573.484375 317.25 582.875 317.25 C 592.265625 317.25 599.875 324.859375 599.875 334.25 Z M 599.875 334.25 L 591.375 334.25 C 591.375 338.945312 587.570312 342.75 582.875 342.75 C 578.179688 342.75 574.375 338.945312 574.375 334.25 C 574.375 329.554688 578.179688 325.75 582.875 325.75 C 587.570312 325.75 591.375 329.554688 591.375 334.25 Z M 599.875 334.25 "/>
<path style=" stroke:none;fill-rule:evenodd;fill:rgb(100%,100%,100%);fill-opacity:1;" d="M 710.375 334.25 C 710.375 343.640625 702.765625 351.25 693.375 351.25 C 683.984375 351.25 676.375 343.640625 676.375 334.25 C 676.375 324.859375 683.984375 317.25 693.375 317.25 C 702.765625 317.25 710.375 324.859375 710.375 334.25 Z M 710.375 334.25 L 701.875 334.25 C 701.875 338.945312 698.070312 342.75 693.375 342.75 C 688.679688 342.75 684.875 338.945312 684.875 334.25 C 684.875 329.554688 688.679688 325.75 693.375 325.75 C 698.070312 325.75 701.875 329.554688 701.875 334.25 Z M 710.375 334.25 "/>
<path style=" stroke:none;fill-rule:evenodd;fill:rgb(100%,100%,100%);fill-opacity:1;" d="M 825.125 461.75 C 825.125 473.484375 815.609375 483 803.875 483 C 792.140625 483 782.625 473.484375 782.625 461.75 C 782.625 450.015625 792.140625 440.5 803.875 440.5 C 815.609375 440.5 825.125 450.015625 825.125 461.75 Z M 825.125 461.75 L 814.5 461.75 C 814.5 467.617188 809.742188 472.375 803.875 472.375 C 798.007812 472.375 793.25 467.617188 793.25 461.75 C 793.25 455.882812 798.007812 451.125 803.875 451.125 C 809.742188 451.125 814.5 455.882812 814.5 461.75 Z M 825.125 461.75 "/>
<path style=" stroke:none;fill-rule:evenodd;fill:rgb(100%,100%,100%);fill-opacity:1;" d="M 460.476562 451.125 L 460.476562 344.875 L 484.273438 344.875 L 484.273438 451.125 "/>
<path style=" stroke:none;fill-rule:evenodd;fill:rgb(100%,100%,100%);fill-opacity:1;" d="M 461.75 344.449219 L 317.25 344.449219 L 317.25 324.050781 L 461.75 324.050781 "/>
<path style=" stroke:none;fill-rule:evenodd;fill:rgb(100%,100%,100%);fill-opacity:1;" d="M 297.273438 323.625 L 297.273438 217.375 L 315.976562 217.375 L 315.976562 323.625 "/>
<path style=" stroke:none;fill-rule:evenodd;fill:rgb(100%,100%,100%);fill-opacity:1;" d="M 489.375 334.25 C 489.375 343.640625 481.765625 351.25 472.375 351.25 C 462.984375 351.25 455.375 343.640625 455.375 334.25 C 455.375 324.859375 462.984375 317.25 472.375 317.25 C 481.765625 317.25 489.375 324.859375 489.375 334.25 Z M 489.375 334.25 L 480.875 334.25 C 480.875 338.945312 477.070312 342.75 472.375 342.75 C 467.679688 342.75 463.875 338.945312 463.875 334.25 C 463.875 329.554688 467.679688 325.75 472.375 325.75 C 477.070312 325.75 480.875 329.554688 480.875 334.25 Z M 489.375 334.25 "/>
<path style=" stroke:none;fill-rule:evenodd;fill:rgb(100%,100%,100%);fill-opacity:1;" d="M 323.625 334.25 C 323.625 343.640625 316.015625 351.25 306.625 351.25 C 297.234375 351.25 289.625 343.640625 289.625 334.25 C 289.625 324.859375 297.234375 317.25 306.625 317.25 C 316.015625 317.25 323.625 324.859375 323.625 334.25 Z M 323.625 334.25 L 315.125 334.25 C 315.125 338.945312 311.320312 342.75 306.625 342.75 C 301.929688 342.75 298.125 338.945312 298.125 334.25 C 298.125 329.554688 301.929688 325.75 306.625 325.75 C 311.320312 325.75 315.125 329.554688 315.125 334.25 Z M 323.625 334.25 "/>
<path style=" stroke:none;fill-rule:evenodd;fill:rgb(100%,100%,100%);fill-opacity:1;" d="M 327.875 206.75 C 327.875 218.484375 318.359375 228 306.625 228 C 294.890625 228 285.375 218.484375 285.375 206.75 C 285.375 195.015625 294.890625 185.5 306.625 185.5 C 318.359375 185.5 327.875 195.015625 327.875 206.75 Z M 327.875 206.75 L 317.25 206.75 C 317.25 212.617188 312.492188 217.375 306.625 217.375 C 300.757812 217.375 296 212.617188 296 206.75 C 296 200.882812 300.757812 196.125 306.625 196.125 C 312.492188 196.125 317.25 200.882812 317.25 206.75 Z M 327.875 206.75 "/>
<path style=" stroke:none;fill-rule:evenodd;fill:rgb(100%,100%,100%);fill-opacity:1;" d="M 515.726562 451.125 L 515.726562 302.375 L 539.523438 302.375 L 539.523438 451.125 "/>
<path style=" stroke:none;fill-rule:evenodd;fill:rgb(100%,100%,100%);fill-opacity:1;" d="M 512.984375 293.355469 L 500.183594 283.507812 L 487.378906 273.660156 L 474.578125 263.8125 L 487.015625 247.644531 L 499.816406 257.492188 L 512.621094 267.339844 L 525.421875 277.1875 "/>
<path style=" stroke:none;fill-rule:evenodd;fill:rgb(100%,100%,100%);fill-opacity:1;" d="M 463.023438 238.625 L 463.023438 217.375 L 481.726562 217.375 L 481.726562 238.625 "/>
<path style=" stroke:none;fill-rule:evenodd;fill:rgb(100%,100%,100%);fill-opacity:1;" d="M 459.164062 210.015625 L 428.765625 195.984375 L 367.960938 167.921875 L 375.085938 152.484375 L 405.484375 166.515625 L 466.289062 194.578125 "/>
<path style=" stroke:none;fill-rule:evenodd;fill:rgb(100%,100%,100%);fill-opacity:1;" d="M 544.625 291.75 C 544.625 301.140625 537.015625 308.75 527.625 308.75 C 518.234375 308.75 510.625 301.140625 510.625 291.75 C 510.625 282.359375 518.234375 274.75 527.625 274.75 C 537.015625 274.75 544.625 282.359375 544.625 291.75 Z M 544.625 291.75 L 536.125 291.75 C 536.125 296.445312 532.320312 300.25 527.625 300.25 C 522.929688 300.25 519.125 296.445312 519.125 291.75 C 519.125 287.054688 522.929688 283.25 527.625 283.25 C 532.320312 283.25 536.125 287.054688 536.125 291.75 Z M 544.625 291.75 "/>
<path style=" stroke:none;fill-rule:evenodd;fill:rgb(100%,100%,100%);fill-opacity:1;" d="M 489.375 249.25 C 489.375 258.640625 481.765625 266.25 472.375 266.25 C 462.984375 266.25 455.375 258.640625 455.375 249.25 C 455.375 239.859375 462.984375 232.25 472.375 232.25 C 481.765625 232.25 489.375 239.859375 489.375 249.25 Z M 489.375 249.25 L 480.875 249.25 C 480.875 253.945312 477.070312 257.75 472.375 257.75 C 467.679688 257.75 463.875 253.945312 463.875 249.25 C 463.875 244.554688 467.679688 240.75 472.375 240.75 C 477.070312 240.75 480.875 244.554688 480.875 249.25 Z M 489.375 249.25 "/>
<path style=" stroke:none;fill-rule:evenodd;fill:rgb(100%,100%,100%);fill-opacity:1;" d="M 489.375 206.75 C 489.375 216.140625 481.765625 223.75 472.375 223.75 C 462.984375 223.75 455.375 216.140625 455.375 206.75 C 455.375 197.359375 462.984375 189.75 472.375 189.75 C 481.765625 189.75 489.375 197.359375 489.375 206.75 Z M 489.375 206.75 L 480.875 206.75 C 480.875 211.445312 477.070312 215.25 472.375 215.25 C 467.679688 215.25 463.875 211.445312 463.875 206.75 C 463.875 202.054688 467.679688 198.25 472.375 198.25 C 477.070312 198.25 480.875 202.054688 480.875 206.75 Z M 489.375 206.75 "/>
<path style=" stroke:none;fill-rule:evenodd;fill:rgb(100%,100%,100%);fill-opacity:1;" d="M 383.125 155.75 C 383.125 167.484375 373.609375 177 361.875 177 C 350.140625 177 340.625 167.484375 340.625 155.75 C 340.625 144.015625 350.140625 134.5 361.875 134.5 C 373.609375 134.5 383.125 144.015625 383.125 155.75 Z M 383.125 155.75 L 372.5 155.75 C 372.5 161.617188 367.742188 166.375 361.875 166.375 C 356.007812 166.375 351.25 161.617188 351.25 155.75 C 351.25 149.882812 356.007812 145.125 361.875 145.125 C 367.742188 145.125 372.5 149.882812 372.5 155.75 Z M 383.125 155.75 "/>
<path style=" stroke:none;fill-rule:evenodd;fill:rgb(100%,100%,100%);fill-opacity:1;" d="M 405.226562 451.125 L 405.226562 387.375 L 429.023438 387.375 L 429.023438 451.125 "/>
<path style=" stroke:none;fill-rule:evenodd;fill:rgb(100%,100%,100%);fill-opacity:1;" d="M 406.5 386.949219 L 262 386.949219 L 262 366.550781 L 406.5 366.550781 "/>
<path style=" stroke:none;fill-rule:evenodd;fill:rgb(100%,100%,100%);fill-opacity:1;" d="M 237.746094 372.9375 L 223.1875 350.542969 L 208.632812 328.148438 L 194.074219 305.753906 L 209.753906 295.5625 L 224.3125 317.957031 L 238.867188 340.351562 L 253.425781 362.746094 "/>
<path style=" stroke:none;fill-rule:evenodd;fill:rgb(100%,100%,100%);fill-opacity:1;" d="M 434.125 376.75 C 434.125 386.140625 426.515625 393.75 417.125 393.75 C 407.734375 393.75 400.125 386.140625 400.125 376.75 C 400.125 367.359375 407.734375 359.75 417.125 359.75 C 426.515625 359.75 434.125 367.359375 434.125 376.75 Z M 434.125 376.75 L 425.625 376.75 C 425.625 381.445312 421.820312 385.25 417.125 385.25 C 412.429688 385.25 408.625 381.445312 408.625 376.75 C 408.625 372.054688 412.429688 368.25 417.125 368.25 C 421.820312 368.25 425.625 372.054688 425.625 376.75 Z M 434.125 376.75 "/>
<path style=" stroke:none;fill-rule:evenodd;fill:rgb(100%,100%,100%);fill-opacity:1;" d="M 268.375 376.75 C 268.375 386.140625 260.765625 393.75 251.375 393.75 C 241.984375 393.75 234.375 386.140625 234.375 376.75 C 234.375 367.359375 241.984375 359.75 251.375 359.75 C 260.765625 359.75 268.375 367.359375 268.375 376.75 Z M 268.375 376.75 L 259.875 376.75 C 259.875 381.445312 256.070312 385.25 251.375 385.25 C 246.679688 385.25 242.875 381.445312 242.875 376.75 C 242.875 372.054688 246.679688 368.25 251.375 368.25 C 256.070312 368.25 259.875 372.054688 259.875 376.75 Z M 268.375 376.75 "/>
<path style=" stroke:none;fill-rule:evenodd;fill:rgb(100%,100%,100%);fill-opacity:1;" d="M 217.375 291.75 C 217.375 303.484375 207.859375 313 196.125 313 C 184.390625 313 174.875 303.484375 174.875 291.75 C 174.875 280.015625 184.390625 270.5 196.125 270.5 C 207.859375 270.5 217.375 280.015625 217.375 291.75 Z M 217.375 291.75 L 206.75 291.75 C 206.75 297.617188 201.992188 302.375 196.125 302.375 C 190.257812 302.375 185.5 297.617188 185.5 291.75 C 185.5 285.882812 190.257812 281.125 196.125 281.125 C 201.992188 281.125 206.75 285.882812 206.75 291.75 Z M 217.375 291.75 "/>
<path style=" stroke:none;fill-rule:nonzero;fill:rgb(100%,100%,100%);fill-opacity:1;" d="M 252.425781 774.425781 L 250.714844 767.128906 L 249.304688 759.640625 L 248.109375 752.089844 L 247.066406 744.535156 L 246.191406 736.914062 L 245.511719 729.191406 L 245.109375 721.386719 L 244.980469 713.542969 L 245.160156 705.636719 L 245.679688 697.664062 L 246.605469 689.632812 L 247.984375 681.558594 L 249.902344 673.425781 L 252.460938 665.328125 L 255.65625 657.390625 L 259.527344 649.617188 L 264.148438 642.09375 L 269.464844 635.011719 L 275.402344 628.386719 L 281.886719 622.382812 L 288.742188 616.925781 L 295.921875 612.09375 L 303.242188 607.761719 L 310.765625 603.90625 L 318.195312 600.550781 L 325.554688 597.453125 L 333.007812 594.589844 L 340.335938 591.980469 L 347.515625 589.496094 L 354.617188 587.09375 L 361.542969 584.746094 L 368.273438 582.378906 L 374.84375 579.949219 L 381.085938 577.46875 L 386.996094 574.832031 L 392.554688 572.054688 L 397.570312 569.128906 L 402.089844 566.003906 L 405.988281 562.761719 L 409.253906 559.371094 L 412.039062 555.746094 L 414.273438 552.023438 L 416.074219 547.984375 L 417.519531 543.640625 L 418.550781 538.992188 L 419.28125 533.847656 L 419.667969 528.421875 L 419.714844 522.769531 L 419.261719 516.175781 L 478.738281 517.824219 L 477.875 526.019531 L 476.683594 535.109375 L 474.867188 544.3125 L 472.332031 553.589844 L 468.882812 563.039062 L 464.375 572.230469 L 458.882812 581.054688 L 452.308594 589.207031 L 445.03125 596.414062 L 437.117188 602.710938 L 428.890625 607.9375 L 420.632812 612.257812 L 412.355469 615.828125 L 404.261719 618.746094 L 396.289062 621.238281 L 388.460938 623.335938 L 380.871094 625.191406 L 373.375 626.894531 L 366.03125 628.472656 L 358.871094 630.011719 L 351.820312 631.574219 L 344.960938 633.160156 L 338.335938 634.859375 L 331.773438 636.765625 L 325.421875 638.792969 L 319.453125 641.011719 L 313.683594 643.570312 L 308.195312 646.386719 L 303.046875 649.570312 L 298.207031 653.078125 L 293.757812 656.984375 L 289.636719 661.292969 L 285.921875 665.980469 L 282.558594 671.109375 L 279.554688 676.601562 L 276.957031 682.367188 L 274.753906 688.441406 L 272.886719 694.800781 L 271.351562 701.355469 L 270.121094 708.078125 L 269.171875 714.925781 L 268.484375 721.863281 L 268.039062 728.855469 L 267.84375 735.921875 L 267.839844 743.074219 L 268 750.265625 L 268.304688 757.433594 L 268.816406 764.617188 L 269.246094 771.960938 "/>
<path style=" stroke:none;fill-rule:nonzero;fill:rgb(100%,100%,100%);fill-opacity:1;" d="M 262 844.25 L 215.25 844.25 C 205.859375 844.25 198.25 836.640625 198.25 827.25 L 198.25 733.75 C 198.25 724.359375 205.859375 716.75 215.25 716.75 L 308.75 716.75 C 318.140625 716.75 325.75 724.359375 325.75 733.75 L 325.75 827.25 C 325.75 836.640625 318.140625 844.25 308.75 844.25 Z M 262 844.25 "/>
<path style=" stroke:none;fill-rule:nonzero;fill:rgb(100%,100%,100%);fill-opacity:1;" d="M 491.5 775.230469 L 490.863281 769.960938 L 490.011719 759.421875 L 489.585938 754.148438 L 489.164062 748.878906 L 487.460938 727.800781 L 487.039062 722.53125 L 486.613281 717.261719 L 486.1875 711.988281 L 485.335938 701.449219 L 484.914062 696.179688 L 483.210938 675.101562 L 482.789062 669.828125 L 481.085938 648.75 L 480.664062 643.480469 L 479.386719 627.671875 L 478.960938 622.398438 L 478.539062 617.128906 L 476.835938 596.050781 L 476.414062 590.78125 L 475.988281 585.511719 L 475.5625 580.238281 L 474.710938 569.699219 L 474.289062 564.429688 L 472.585938 543.351562 L 472.164062 538.078125 L 470.886719 522.269531 L 470.25 517 L 529.75 517 L 529.113281 522.269531 L 527.835938 538.078125 L 527.414062 543.351562 L 525.710938 564.429688 L 525.289062 569.699219 L 524.4375 580.238281 L 524.011719 585.511719 L 523.585938 590.78125 L 523.164062 596.050781 L 521.460938 617.128906 L 521.039062 622.398438 L 520.613281 627.671875 L 519.335938 643.480469 L 518.914062 648.75 L 517.210938 669.828125 L 516.789062 675.101562 L 515.085938 696.179688 L 514.664062 701.449219 L 513.8125 711.988281 L 513.386719 717.261719 L 512.960938 722.53125 L 512.539062 727.800781 L 510.835938 748.878906 L 510.414062 754.148438 L 509.988281 759.421875 L 509.136719 769.960938 L 508.5 775.230469 "/>
<path style=" stroke:none;fill-rule:nonzero;fill:rgb(100%,100%,100%);fill-opacity:1;" d="M 500 844.25 L 453.25 844.25 C 443.859375 844.25 436.25 836.640625 436.25 827.25 L 436.25 733.75 C 436.25 724.359375 443.859375 716.75 453.25 716.75 L 546.75 716.75 C 556.140625 716.75 563.75 724.359375 563.75 733.75 L 563.75 827.25 C 563.75 836.640625 556.140625 844.25 546.75 844.25 Z M 500 844.25 "/>
<path style=" stroke:none;fill-rule:nonzero;fill:rgb(100%,100%,100%);fill-opacity:1;" d="M 730.75 771.964844 L 731.179688 764.617188 L 731.691406 757.433594 L 731.992188 750.265625 L 732.152344 743.074219 L 732.148438 735.929688 L 731.945312 728.859375 L 731.503906 721.863281 L 730.8125 714.917969 L 729.871094 708.074219 L 728.636719 701.363281 L 727.101562 694.804688 L 725.230469 688.4375 L 723.035156 682.367188 L 720.429688 676.601562 L 717.429688 671.097656 L 714.074219 665.980469 L 710.359375 661.300781 L 706.226562 656.984375 L 701.78125 653.074219 L 696.945312 649.570312 L 691.792969 646.382812 L 686.304688 643.566406 L 680.535156 641.011719 L 674.570312 638.792969 L 668.214844 636.765625 L 661.652344 634.859375 L 655.03125 633.15625 L 648.171875 631.574219 L 641.117188 630.007812 L 633.957031 628.472656 L 626.617188 626.894531 L 619.117188 625.1875 L 611.527344 623.335938 L 603.703125 621.238281 L 595.730469 618.746094 L 587.632812 615.832031 L 579.351562 612.253906 L 571.101562 607.933594 L 562.875 602.714844 L 554.964844 596.421875 L 547.683594 589.21875 L 541.09375 581.042969 L 535.613281 572.21875 L 531.109375 563.042969 L 527.660156 553.597656 L 525.121094 544.308594 L 523.308594 535.101562 L 522.117188 526 L 521.261719 517.792969 L 580.738281 516.207031 L 580.277344 522.789062 L 580.324219 528.429688 L 580.707031 533.851562 L 581.4375 538.988281 L 582.46875 543.636719 L 583.921875 547.996094 L 585.722656 552.039062 L 587.941406 555.746094 L 590.730469 559.363281 L 593.996094 562.757812 L 597.898438 566 L 602.425781 569.132812 L 607.433594 572.054688 L 612.992188 574.832031 L 618.898438 577.46875 L 625.144531 579.945312 L 631.71875 582.378906 L 638.445312 584.746094 L 645.371094 587.089844 L 652.472656 589.496094 L 659.652344 591.976562 L 666.984375 594.589844 L 674.4375 597.453125 L 681.796875 600.550781 L 689.222656 603.90625 L 696.746094 607.757812 L 704.070312 612.09375 L 711.246094 616.925781 L 718.097656 622.378906 L 724.589844 628.386719 L 730.523438 635.015625 L 735.832031 642.082031 L 740.46875 649.609375 L 744.339844 657.394531 L 747.523438 665.328125 L 750.089844 673.425781 L 752 681.5625 L 753.378906 689.628906 L 754.304688 697.660156 L 754.832031 705.636719 L 755.003906 713.542969 L 754.875 721.386719 L 754.472656 729.1875 L 753.804688 736.90625 L 752.929688 744.53125 L 751.882812 752.085938 L 750.691406 759.640625 L 749.28125 767.128906 L 747.570312 774.421875 "/>
<path style=" stroke:none;fill-rule:nonzero;fill:rgb(100%,100%,100%);fill-opacity:1;" d="M 738 844.25 L 691.25 844.25 C 681.859375 844.25 674.25 836.640625 674.25 827.25 L 674.25 733.75 C 674.25 724.359375 681.859375 716.75 691.25 716.75 L 784.75 716.75 C 794.140625 716.75 801.75 724.359375 801.75 733.75 L 801.75 827.25 C 801.75 836.640625 794.140625 844.25 784.75 844.25 Z M 738 844.25 "/>
<path style=" stroke:none;fill-rule:nonzero;fill:rgb(94.901961%,94.901961%,94.901961%);fill-opacity:1;" d="M 606.25 500 C 606.25 558.679688 558.679688 606.25 500 606.25 C 441.320312 606.25 393.75 558.679688 393.75 500 C 393.75 441.320312 441.320312 393.75 500 393.75 C 558.679688 393.75 606.25 441.320312 606.25 500 Z M 606.25 500 "/>
<path style=" stroke:none;fill-rule:nonzero;fill:rgb(79.6%,23.5%,20%);fill-opacity:1;" d="M 494.082031 534 C 494.082031 555.125 476.957031 572.25 455.832031 572.25 C 434.707031 572.25 417.582031 555.125 417.582031 534 C 417.582031 512.875 434.707031 495.75 455.832031 495.75 C 476.957031 495.75 494.082031 512.875 494.082031 534 Z M 494.082031 534 "/>
<path style=" stroke:none;fill-rule:nonzero;fill:rgb(22%,59.6%,14.9%);fill-opacity:1;" d="M 538.25 457.5 C 538.25 478.625 521.125 495.75 500 495.75 C 478.875 495.75 461.75 478.625 461.75 457.5 C 461.75 436.375 478.875 419.25 500 419.25 C 521.125 419.25 538.25 436.375 538.25 457.5 Z M 538.25 457.5 "/>
<path style=" stroke:none;fill-rule:nonzero;fill:rgb(58.4%,34.5%,69.8%);fill-opacity:1;" d="M 582.417969 534 C 582.417969 555.125 565.292969 572.25 544.167969 572.25 C 523.042969 572.25 505.917969 555.125 505.917969 534 C 505.917969 512.875 523.042969 495.75 544.167969 495.75 C 565.292969 495.75 582.417969 512.875 582.417969 534 Z M 582.417969 534 "/>
<path style=" stroke:none;fill-rule:evenodd;fill:rgb(94.901961%,94.901961%,94.901961%);fill-opacity:1;" d="M 990 500 C 990 629.957031 938.375 754.589844 846.480469 846.480469 C 754.589844 938.375 629.957031 990 500 990 C 370.042969 990 245.410156 938.375 153.519531 846.480469 C 61.625 754.589844 10 629.957031 10 500 C 10 370.042969 61.625 245.410156 153.519531 153.519531 C 245.410156 61.625 370.042969 10 500 10 C 629.957031 10 754.589844 61.625 846.480469 153.519531 C 938.375 245.410156 990 370.042969 990 500 Z M 990 500 L 985 500 C 985 628.628906 933.902344 751.992188 842.945312 842.945312 C 751.992188 933.902344 628.628906 985 500 985 C 371.371094 985 248.007812 933.902344 157.054688 842.945312 C 66.097656 751.992188 15 628.628906 15 500 C 15 371.371094 66.097656 248.007812 157.054688 157.054688 C 248.007812 66.097656 371.371094 15 500 15 C 628.628906 15 751.992188 66.097656 842.945312 157.054688 C 933.902344 248.007812 985 371.371094 985 500 Z M 990 500 "/>
</g>
</svg>
