<?xml version="1.0" encoding="UTF-8"?>
<svg xmlns="http://www.w3.org/2000/svg" xmlns:xlink="http://www.w3.org/1999/xlink" width="1000pt" height="1000pt" viewBox="0 0 1000 1000" version="1.1">
<g id="surface46515">
<path style=" stroke:none;fill-rule:nonzero;fill:rgb(5.098039%,5.098039%,5.098039%);fill-opacity:1;" d="M 980 500 L 979.851562 872.140625 L 979.40625 898.726562 L 978.65625 915.011719 L 977.597656 926.816406 L 976.214844 936.039062 L 974.492188 943.554688 L 972.410156 949.832031 L 969.933594 955.160156 L 967.03125 959.722656 L 963.648438 963.648438 L 959.722656 967.03125 L 955.160156 969.933594 L 949.832031 972.410156 L 943.554688 974.492188 L 936.039062 976.214844 L 926.816406 977.597656 L 915.011719 978.65625 L 898.726562 979.40625 L 872.140625 979.851562 L 511.480469 980 L 127.859375 979.851562 L 101.273438 979.40625 L 84.988281 978.65625 L 73.183594 977.597656 L 63.960938 976.214844 L 56.445312 974.492188 L 50.167969 972.410156 L 44.839844 969.933594 L 40.277344 967.03125 L 36.351562 963.648438 L 32.96875 959.722656 L 30.066406 955.160156 L 27.589844 949.832031 L 25.507812 943.554688 L 23.785156 936.039062 L 22.402344 926.816406 L 21.34375 915.011719 L 20.59375 898.726562 L 20.148438 872.140625 L 20 512.304688 L 20.148438 127.859375 L 20.59375 101.273438 L 21.34375 84.988281 L 22.402344 73.183594 L 23.785156 63.960938 L 25.507812 56.445312 L 27.589844 50.167969 L 30.066406 44.839844 L 32.96875 40.277344 L 36.351562 36.351562 L 40.277344 32.96875 L 44.839844 30.066406 L 50.167969 27.589844 L 56.445312 25.507812 L 63.960938 23.785156 L 73.183594 22.402344 L 84.988281 21.34375 L 101.273438 20.59375 L 127.859375 20.148438 L 487.1875 20 L 872.140625 20.148438 L 898.726562 20.59375 L 915.011719 21.34375 L 926.816406 22.402344 L 936.039062 23.785156 L 943.554688 25.507812 L 949.832031 27.589844 L 955.160156 30.066406 L 959.722656 32.96875 L 963.648438 36.351562 L 967.03125 40.277344 L 969.933594 44.839844 L 972.410156 50.167969 L 974.492188 56.445312 L 976.214844 63.960938 L 977.597656 73.183594 L 978.65625 84.988281 L 979.40625 101.273438 L 979.851562 127.859375 L 980 486.8125 Z M 980 500 "/>
<path style=" stroke:none;fill-rule:evenodd;fill:rgb(94.901961%,94.901961%,94.901961%);fill-opacity:1;" d="M 583.5 457.5 L 583.5 332.5 L 611.5 332.5 L 611.5 457.5 "/>
<path style=" stroke:none;fill-rule:evenodd;fill:rgb(94.901961%,94.901961%,94.901961%);fill-opacity:1;" d="M 585.5 307.5 L 585.5 232.5 L 609.5 232.5 L 609.5 307.5 "/>
<path style=" stroke:none;fill-rule:evenodd;fill:rgb(94.901961%,94.901961%,94.901961%);fill-opacity:1;" d="M 610 209 L 715 209 L 715 231 L 610 231 "/>
<path style=" stroke:none;fill-rule:evenodd;fill:rgb(94.901961%,94.901961%,94.901961%);fill-opacity:1;" d="M 731.3125 204.453125 L 746.371094 192.867188 L 776.496094 169.695312 L 788.6875 185.546875 L 773.628906 197.132812 L 743.503906 220.304688 "/>
<path style=" stroke:none;fill-rule:evenodd;fill:rgb(94.901961%,94.901961%,94.901961%);fill-opacity:1;" d="M 617.5 320 C 617.5 331.046875 608.546875 340 597.5 340 C 586.453125 340 577.5 331.046875 577.5 320 C 577.5 308.953125 586.453125 300 597.5 300 C 608.546875 300 617.5 308.953125 617.5 320 Z M 617.5 320 L 607.5 320 C 607.5 325.523438 603.023438 330 597.5 330 C 591.976562 330 587.5 325.523438 587.5 320 C 587.5 314.476562 591.976562 310 597.5 310 C 603.023438 310 607.5 314.476562 607.5 320 Z M 617.5 320 "/>
<path style=" stroke:none;fill-rule:evenodd;fill:rgb(94.901961%,94.901961%,94.901961%);fill-opacity:1;" d="M 617.5 220 C 617.5 231.046875 608.546875 240 597.5 240 C 586.453125 240 577.5 231.046875 577.5 220 C 577.5 208.953125 586.453125 200 597.5 200 C 608.546875 200 617.5 208.953125 617.5 220 Z M 617.5 220 L 607.5 220 C 607.5 225.523438 603.023438 230 597.5 230 C 591.976562 230 587.5 225.523438 587.5 220 C 587.5 214.476562 591.976562 210 597.5 210 C 603.023438 210 607.5 214.476562 607.5 220 Z M 617.5 220 "/>
<path style=" stroke:none;fill-rule:evenodd;fill:rgb(94.901961%,94.901961%,94.901961%);fill-opacity:1;" d="M 747.5 220 C 747.5 231.046875 738.546875 240 727.5 240 C 716.453125 240 707.5 231.046875 707.5 220 C 707.5 208.953125 716.453125 200 727.5 200 C 738.546875 200 747.5 208.953125 747.5 220 Z M 747.5 220 L 737.5 220 C 737.5 225.523438 733.023438 230 727.5 230 C 721.976562 230 717.5 225.523438 717.5 220 C 717.5 214.476562 721.976562 210 727.5 210 C 733.023438 210 737.5 214.476562 737.5 220 Z M 747.5 220 "/>
<path style=" stroke:none;fill-rule:evenodd;fill:rgb(94.901961%,94.901961%,94.901961%);fill-opacity:1;" d="M 817.5 170 C 817.5 183.808594 806.308594 195 792.5 195 C 778.691406 195 767.5 183.808594 767.5 170 C 767.5 156.191406 778.691406 145 792.5 145 C 806.308594 145 817.5 156.191406 817.5 170 Z M 817.5 170 L 805 170 C 805 176.902344 799.402344 182.5 792.5 182.5 C 785.597656 182.5 780 176.902344 780 170 C 780 163.097656 785.597656 157.5 792.5 157.5 C 799.402344 157.5 805 163.097656 805 170 Z M 817.5 170 "/>
<path style=" stroke:none;fill-rule:evenodd;fill:rgb(94.901961%,94.901961%,94.901961%);fill-opacity:1;" d="M 518.5 457.5 L 518.5 282.5 L 546.5 282.5 L 546.5 457.5 "/>
<path style=" stroke:none;fill-rule:evenodd;fill:rgb(94.901961%,94.901961%,94.901961%);fill-opacity:1;" d="M 520.5 257.5 L 520.5 182.5 L 544.5 182.5 L 544.5 257.5 "/>
<path style=" stroke:none;fill-rule:evenodd;fill:rgb(94.901961%,94.901961%,94.901961%);fill-opacity:1;" d="M 539.238281 154.773438 L 575.007812 138.265625 L 646.539062 105.25 L 655.761719 125.226562 L 619.992188 141.734375 L 548.460938 174.75 "/>
<path style=" stroke:none;fill-rule:evenodd;fill:rgb(94.901961%,94.901961%,94.901961%);fill-opacity:1;" d="M 552.5 270 C 552.5 281.046875 543.546875 290 532.5 290 C 521.453125 290 512.5 281.046875 512.5 270 C 512.5 258.953125 521.453125 250 532.5 250 C 543.546875 250 552.5 258.953125 552.5 270 Z M 552.5 270 L 542.5 270 C 542.5 275.523438 538.023438 280 532.5 280 C 526.976562 280 522.5 275.523438 522.5 270 C 522.5 264.476562 526.976562 260 532.5 260 C 538.023438 260 542.5 264.476562 542.5 270 Z M 552.5 270 "/>
<path style=" stroke:none;fill-rule:evenodd;fill:rgb(94.901961%,94.901961%,94.901961%);fill-opacity:1;" d="M 552.5 170 C 552.5 181.046875 543.546875 190 532.5 190 C 521.453125 190 512.5 181.046875 512.5 170 C 512.5 158.953125 521.453125 150 532.5 150 C 543.546875 150 552.5 158.953125 552.5 170 Z M 552.5 170 L 542.5 170 C 542.5 175.523438 538.023438 180 532.5 180 C 526.976562 180 522.5 175.523438 522.5 170 C 522.5 164.476562 526.976562 160 532.5 160 C 538.023438 160 542.5 164.476562 542.5 170 Z M 552.5 170 "/>
<path style=" stroke:none;fill-rule:evenodd;fill:rgb(94.901961%,94.901961%,94.901961%);fill-opacity:1;" d="M 687.5 110 C 687.5 123.808594 676.308594 135 662.5 135 C 648.691406 135 637.5 123.808594 637.5 110 C 637.5 96.191406 648.691406 85 662.5 85 C 676.308594 85 687.5 96.191406 687.5 110 Z M 687.5 110 L 675 110 C 675 116.902344 669.402344 122.5 662.5 122.5 C 655.597656 122.5 650 116.902344 650 110 C 650 103.097656 655.597656 97.5 662.5 97.5 C 669.402344 97.5 675 103.097656 675 110 Z M 687.5 110 "/>
<path style=" stroke:none;fill-rule:evenodd;fill:rgb(94.901961%,94.901961%,94.901961%);fill-opacity:1;" d="M 583.5 457.5 L 583.5 332.5 L 611.5 332.5 L 611.5 457.5 "/>
<path style=" stroke:none;fill-rule:evenodd;fill:rgb(94.901961%,94.901961%,94.901961%);fill-opacity:1;" d="M 610 308 L 715 308 L 715 332 L 610 332 "/>
<path style=" stroke:none;fill-rule:evenodd;fill:rgb(94.901961%,94.901961%,94.901961%);fill-opacity:1;" d="M 730.699219 303.660156 L 775.886719 268.902344 L 789.300781 286.339844 L 744.113281 321.097656 "/>
<path style=" stroke:none;fill-rule:evenodd;fill:rgb(94.901961%,94.901961%,94.901961%);fill-opacity:1;" d="M 805 260 L 845 260 L 845 280 L 805 280 "/>
<path style=" stroke:none;fill-rule:evenodd;fill:rgb(94.901961%,94.901961%,94.901961%);fill-opacity:1;" d="M 617.5 320 C 617.5 331.046875 608.546875 340 597.5 340 C 586.453125 340 577.5 331.046875 577.5 320 C 577.5 308.953125 586.453125 300 597.5 300 C 608.546875 300 617.5 308.953125 617.5 320 Z M 617.5 320 L 607.5 320 C 607.5 325.523438 603.023438 330 597.5 330 C 591.976562 330 587.5 325.523438 587.5 320 C 587.5 314.476562 591.976562 310 597.5 310 C 603.023438 310 607.5 314.476562 607.5 320 Z M 617.5 320 "/>
<path style=" stroke:none;fill-rule:evenodd;fill:rgb(94.901961%,94.901961%,94.901961%);fill-opacity:1;" d="M 747.5 320 C 747.5 331.046875 738.546875 340 727.5 340 C 716.453125 340 707.5 331.046875 707.5 320 C 707.5 308.953125 716.453125 300 727.5 300 C 738.546875 300 747.5 308.953125 747.5 320 Z M 747.5 320 L 737.5 320 C 737.5 325.523438 733.023438 330 727.5 330 C 721.976562 330 717.5 325.523438 717.5 320 C 717.5 314.476562 721.976562 310 727.5 310 C 733.023438 310 737.5 314.476562 737.5 320 Z M 747.5 320 "/>
<path style=" stroke:none;fill-rule:evenodd;fill:rgb(94.901961%,94.901961%,94.901961%);fill-opacity:1;" d="M 812.5 270 C 812.5 281.046875 803.546875 290 792.5 290 C 781.453125 290 772.5 281.046875 772.5 270 C 772.5 258.953125 781.453125 250 792.5 250 C 803.546875 250 812.5 258.953125 812.5 270 Z M 812.5 270 L 802.5 270 C 802.5 275.523438 798.023438 280 792.5 280 C 786.976562 280 782.5 275.523438 782.5 270 C 782.5 264.476562 786.976562 260 792.5 260 C 798.023438 260 802.5 264.476562 802.5 270 Z M 812.5 270 "/>
<path style=" stroke:none;fill-rule:evenodd;fill:rgb(94.901961%,94.901961%,94.901961%);fill-opacity:1;" d="M 882.5 270 C 882.5 283.808594 871.308594 295 857.5 295 C 843.691406 295 832.5 283.808594 832.5 270 C 832.5 256.191406 843.691406 245 857.5 245 C 871.308594 245 882.5 256.191406 882.5 270 Z M 882.5 270 L 870 270 C 870 276.902344 864.402344 282.5 857.5 282.5 C 850.597656 282.5 845 276.902344 845 270 C 845 263.097656 850.597656 257.5 857.5 257.5 C 864.402344 257.5 870 263.097656 870 270 Z M 882.5 270 "/>
<path style=" stroke:none;fill-rule:evenodd;fill:rgb(94.901961%,94.901961%,94.901961%);fill-opacity:1;" d="M 583.5 457.5 L 583.5 332.5 L 611.5 332.5 L 611.5 457.5 "/>
<path style=" stroke:none;fill-rule:evenodd;fill:rgb(94.901961%,94.901961%,94.901961%);fill-opacity:1;" d="M 610 308 L 715 308 L 715 332 L 610 332 "/>
<path style=" stroke:none;fill-rule:evenodd;fill:rgb(94.901961%,94.901961%,94.901961%);fill-opacity:1;" d="M 744 322.242188 L 857.625 453.351562 L 841 467.757812 L 727.375 336.648438 "/>
<path style=" stroke:none;fill-rule:evenodd;fill:rgb(94.901961%,94.901961%,94.901961%);fill-opacity:1;" d="M 617.5 320 C 617.5 331.046875 608.546875 340 597.5 340 C 586.453125 340 577.5 331.046875 577.5 320 C 577.5 308.953125 586.453125 300 597.5 300 C 608.546875 300 617.5 308.953125 617.5 320 Z M 617.5 320 L 607.5 320 C 607.5 325.523438 603.023438 330 597.5 330 C 591.976562 330 587.5 325.523438 587.5 320 C 587.5 314.476562 591.976562 310 597.5 310 C 603.023438 310 607.5 314.476562 607.5 320 Z M 617.5 320 "/>
<path style=" stroke:none;fill-rule:evenodd;fill:rgb(94.901961%,94.901961%,94.901961%);fill-opacity:1;" d="M 747.5 320 C 747.5 331.046875 738.546875 340 727.5 340 C 716.453125 340 707.5 331.046875 707.5 320 C 707.5 308.953125 716.453125 300 727.5 300 C 738.546875 300 747.5 308.953125 747.5 320 Z M 747.5 320 L 737.5 320 C 737.5 325.523438 733.023438 330 727.5 330 C 721.976562 330 717.5 325.523438 717.5 320 C 717.5 314.476562 721.976562 310 727.5 310 C 733.023438 310 737.5 314.476562 737.5 320 Z M 747.5 320 "/>
<path style=" stroke:none;fill-rule:evenodd;fill:rgb(94.901961%,94.901961%,94.901961%);fill-opacity:1;" d="M 882.5 470 C 882.5 483.808594 871.308594 495 857.5 495 C 843.691406 495 832.5 483.808594 832.5 470 C 832.5 456.191406 843.691406 445 857.5 445 C 871.308594 445 882.5 456.191406 882.5 470 Z M 882.5 470 L 870 470 C 870 476.902344 864.402344 482.5 857.5 482.5 C 850.597656 482.5 845 476.902344 845 470 C 845 463.097656 850.597656 457.5 857.5 457.5 C 864.402344 457.5 870 463.097656 870 470 Z M 882.5 470 "/>
<path style=" stroke:none;fill-rule:evenodd;fill:rgb(94.901961%,94.901961%,94.901961%);fill-opacity:1;" d="M 453.5 457.5 L 453.5 332.5 L 481.5 332.5 L 481.5 457.5 "/>
<path style=" stroke:none;fill-rule:evenodd;fill:rgb(94.901961%,94.901961%,94.901961%);fill-opacity:1;" d="M 455 332 L 285 332 L 285 308 L 455 308 "/>
<path style=" stroke:none;fill-rule:evenodd;fill:rgb(94.901961%,94.901961%,94.901961%);fill-opacity:1;" d="M 261.5 307.5 L 261.5 182.5 L 283.5 182.5 L 283.5 307.5 "/>
<path style=" stroke:none;fill-rule:evenodd;fill:rgb(94.901961%,94.901961%,94.901961%);fill-opacity:1;" d="M 487.5 320 C 487.5 331.046875 478.546875 340 467.5 340 C 456.453125 340 447.5 331.046875 447.5 320 C 447.5 308.953125 456.453125 300 467.5 300 C 478.546875 300 487.5 308.953125 487.5 320 Z M 487.5 320 L 477.5 320 C 477.5 325.523438 473.023438 330 467.5 330 C 461.976562 330 457.5 325.523438 457.5 320 C 457.5 314.476562 461.976562 310 467.5 310 C 473.023438 310 477.5 314.476562 477.5 320 Z M 487.5 320 "/>
<path style=" stroke:none;fill-rule:evenodd;fill:rgb(94.901961%,94.901961%,94.901961%);fill-opacity:1;" d="M 292.5 320 C 292.5 331.046875 283.546875 340 272.5 340 C 261.453125 340 252.5 331.046875 252.5 320 C 252.5 308.953125 261.453125 300 272.5 300 C 283.546875 300 292.5 308.953125 292.5 320 Z M 292.5 320 L 282.5 320 C 282.5 325.523438 278.023438 330 272.5 330 C 266.976562 330 262.5 325.523438 262.5 320 C 262.5 314.476562 266.976562 310 272.5 310 C 278.023438 310 282.5 314.476562 282.5 320 Z M 292.5 320 "/>
<path style=" stroke:none;fill-rule:evenodd;fill:rgb(94.901961%,94.901961%,94.901961%);fill-opacity:1;" d="M 297.5 170 C 297.5 183.808594 286.308594 195 272.5 195 C 258.691406 195 247.5 183.808594 247.5 170 C 247.5 156.191406 258.691406 145 272.5 145 C 286.308594 145 297.5 156.191406 297.5 170 Z M 297.5 170 L 285 170 C 285 176.902344 279.402344 182.5 272.5 182.5 C 265.597656 182.5 260 176.902344 260 170 C 260 163.097656 265.597656 157.5 272.5 157.5 C 279.402344 157.5 285 163.097656 285 170 Z M 297.5 170 "/>
<path style=" stroke:none;fill-rule:evenodd;fill:rgb(94.901961%,94.901961%,94.901961%);fill-opacity:1;" d="M 518.5 457.5 L 518.5 282.5 L 546.5 282.5 L 546.5 457.5 "/>
<path style=" stroke:none;fill-rule:evenodd;fill:rgb(94.901961%,94.901961%,94.901961%);fill-opacity:1;" d="M 515.277344 271.890625 L 470.089844 237.132812 L 484.722656 218.109375 L 529.910156 252.867188 "/>
<path style=" stroke:none;fill-rule:evenodd;fill:rgb(94.901961%,94.901961%,94.901961%);fill-opacity:1;" d="M 456.5 207.5 L 456.5 182.5 L 478.5 182.5 L 478.5 207.5 "/>
<path style=" stroke:none;fill-rule:evenodd;fill:rgb(94.901961%,94.901961%,94.901961%);fill-opacity:1;" d="M 451.960938 173.839844 L 416.191406 157.332031 L 344.660156 124.316406 L 353.039062 106.160156 L 388.808594 122.667969 L 460.339844 155.683594 "/>
<path style=" stroke:none;fill-rule:evenodd;fill:rgb(94.901961%,94.901961%,94.901961%);fill-opacity:1;" d="M 552.5 270 C 552.5 281.046875 543.546875 290 532.5 290 C 521.453125 290 512.5 281.046875 512.5 270 C 512.5 258.953125 521.453125 250 532.5 250 C 543.546875 250 552.5 258.953125 552.5 270 Z M 552.5 270 L 542.5 270 C 542.5 275.523438 538.023438 280 532.5 280 C 526.976562 280 522.5 275.523438 522.5 270 C 522.5 264.476562 526.976562 260 532.5 260 C 538.023438 260 542.5 264.476562 542.5 270 Z M 552.5 270 "/>
<path style=" stroke:none;fill-rule:evenodd;fill:rgb(94.901961%,94.901961%,94.901961%);fill-opacity:1;" d="M 487.5 220 C 487.5 231.046875 478.546875 240 467.5 240 C 456.453125 240 447.5 231.046875 447.5 220 C 447.5 208.953125 456.453125 200 467.5 200 C 478.546875 200 487.5 208.953125 487.5 220 Z M 487.5 220 L 477.5 220 C 477.5 225.523438 473.023438 230 467.5 230 C 461.976562 230 457.5 225.523438 457.5 220 C 457.5 214.476562 461.976562 210 467.5 210 C 473.023438 210 477.5 214.476562 477.5 220 Z M 487.5 220 "/>
<path style=" stroke:none;fill-rule:evenodd;fill:rgb(94.901961%,94.901961%,94.901961%);fill-opacity:1;" d="M 487.5 170 C 487.5 181.046875 478.546875 190 467.5 190 C 456.453125 190 447.5 181.046875 447.5 170 C 447.5 158.953125 456.453125 150 467.5 150 C 478.546875 150 487.5 158.953125 487.5 170 Z M 487.5 170 L 477.5 170 C 477.5 175.523438 473.023438 180 467.5 180 C 461.976562 180 457.5 175.523438 457.5 170 C 457.5 164.476562 461.976562 160 467.5 160 C 473.023438 160 477.5 164.476562 477.5 170 Z M 487.5 170 "/>
<path style=" stroke:none;fill-rule:evenodd;fill:rgb(94.901961%,94.901961%,94.901961%);fill-opacity:1;" d="M 362.5 110 C 362.5 123.808594 351.308594 135 337.5 135 C 323.691406 135 312.5 123.808594 312.5 110 C 312.5 96.191406 323.691406 85 337.5 85 C 351.308594 85 362.5 96.191406 362.5 110 Z M 362.5 110 L 350 110 C 350 116.902344 344.402344 122.5 337.5 122.5 C 330.597656 122.5 325 116.902344 325 110 C 325 103.097656 330.597656 97.5 337.5 97.5 C 344.402344 97.5 350 103.097656 350 110 Z M 362.5 110 "/>
<path style=" stroke:none;fill-rule:evenodd;fill:rgb(94.901961%,94.901961%,94.901961%);fill-opacity:1;" d="M 388.5 457.5 L 388.5 382.5 L 416.5 382.5 L 416.5 457.5 "/>
<path style=" stroke:none;fill-rule:evenodd;fill:rgb(94.901961%,94.901961%,94.901961%);fill-opacity:1;" d="M 390 382 L 220 382 L 220 358 L 390 358 "/>
<path style=" stroke:none;fill-rule:evenodd;fill:rgb(94.901961%,94.901961%,94.901961%);fill-opacity:1;" d="M 191.464844 365.515625 L 157.214844 312.820312 L 140.089844 286.476562 L 158.535156 274.484375 L 192.785156 327.179688 L 209.910156 353.523438 "/>
<path style=" stroke:none;fill-rule:evenodd;fill:rgb(94.901961%,94.901961%,94.901961%);fill-opacity:1;" d="M 422.5 370 C 422.5 381.046875 413.546875 390 402.5 390 C 391.453125 390 382.5 381.046875 382.5 370 C 382.5 358.953125 391.453125 350 402.5 350 C 413.546875 350 422.5 358.953125 422.5 370 Z M 422.5 370 L 412.5 370 C 412.5 375.523438 408.023438 380 402.5 380 C 396.976562 380 392.5 375.523438 392.5 370 C 392.5 364.476562 396.976562 360 402.5 360 C 408.023438 360 412.5 364.476562 412.5 370 Z M 422.5 370 "/>
<path style=" stroke:none;fill-rule:evenodd;fill:rgb(94.901961%,94.901961%,94.901961%);fill-opacity:1;" d="M 227.5 370 C 227.5 381.046875 218.546875 390 207.5 390 C 196.453125 390 187.5 381.046875 187.5 370 C 187.5 358.953125 196.453125 350 207.5 350 C 218.546875 350 227.5 358.953125 227.5 370 Z M 227.5 370 L 217.5 370 C 217.5 375.523438 213.023438 380 207.5 380 C 201.976562 380 197.5 375.523438 197.5 370 C 197.5 364.476562 201.976562 360 207.5 360 C 213.023438 360 217.5 364.476562 217.5 370 Z M 227.5 370 "/>
<path style=" stroke:none;fill-rule:evenodd;fill:rgb(94.901961%,94.901961%,94.901961%);fill-opacity:1;" d="M 167.5 270 C 167.5 283.808594 156.308594 295 142.5 295 C 128.691406 295 117.5 283.808594 117.5 270 C 117.5 256.191406 128.691406 245 142.5 245 C 156.308594 245 167.5 256.191406 167.5 270 Z M 167.5 270 L 155 270 C 155 276.902344 149.402344 282.5 142.5 282.5 C 135.597656 282.5 130 276.902344 130 270 C 130 263.097656 135.597656 257.5 142.5 257.5 C 149.402344 257.5 155 263.097656 155 270 Z M 167.5 270 "/>
<path style=" stroke:none;fill-rule:nonzero;fill:rgb(94.901961%,94.901961%,94.901961%);fill-opacity:1;" d="M 208.738281 822.851562 L 206.722656 814.269531 L 205.0625 805.460938 L 203.65625 796.574219 L 202.429688 787.683594 L 201.402344 778.722656 L 200.601562 769.640625 L 200.128906 760.453125 L 199.980469 751.222656 L 200.191406 741.925781 L 200.804688 732.546875 L 201.894531 723.097656 L 203.519531 713.601562 L 205.769531 704.03125 L 208.785156 694.503906 L 212.539062 685.167969 L 217.09375 676.019531 L 222.535156 667.160156 L 228.789062 658.839844 L 235.769531 651.046875 L 243.398438 643.980469 L 251.46875 637.554688 L 259.914062 631.875 L 268.519531 626.78125 L 277.285156 622.285156 L 286.085938 618.21875 L 294.871094 614.621094 L 303.539062 611.28125 L 312.164062 608.210938 L 320.617188 605.289062 L 328.96875 602.464844 L 337.113281 599.703125 L 345.03125 596.917969 L 352.777344 594.050781 L 360.144531 591.140625 L 367.050781 588.0625 L 373.5625 584.789062 L 379.492188 581.332031 L 384.8125 577.652344 L 389.40625 573.835938 L 393.246094 569.847656 L 396.527344 565.582031 L 399.144531 561.210938 L 401.261719 556.464844 L 402.964844 551.351562 L 404.179688 545.867188 L 405.039062 539.816406 L 405.492188 533.441406 L 405.550781 526.792969 L 405.011719 519.042969 L 474.988281 520.957031 L 473.972656 530.609375 L 472.570312 541.304688 L 470.433594 552.136719 L 467.445312 563.054688 L 463.394531 574.15625 L 458.09375 584.96875 L 451.632812 595.355469 L 443.890625 604.957031 L 435.328125 613.429688 L 426.019531 620.839844 L 416.34375 626.984375 L 406.636719 632.066406 L 396.925781 636.257812 L 387.390625 639.71875 L 377.960938 642.65625 L 368.769531 645.109375 L 359.855469 647.28125 L 351.035156 649.285156 L 342.394531 651.148438 L 333.964844 652.957031 L 325.671875 654.792969 L 317.605469 656.65625 L 309.714844 658.691406 L 302.066406 660.832031 L 294.707031 663.246094 L 287.601562 665.894531 L 280.804688 668.90625 L 274.347656 672.21875 L 268.296875 675.960938 L 262.601562 680.089844 L 257.371094 684.691406 L 252.511719 689.761719 L 248.144531 695.269531 L 244.191406 701.300781 L 240.660156 707.765625 L 237.601562 714.550781 L 235.007812 721.695312 L 232.8125 729.179688 L 231.003906 736.890625 L 229.558594 744.796875 L 228.441406 752.851562 L 227.628906 761.019531 L 227.105469 769.242188 L 226.878906 777.554688 L 226.871094 785.972656 L 227.058594 794.429688 L 227.414062 802.859375 L 228.019531 811.3125 L 228.527344 819.957031 "/>
<path style=" stroke:none;fill-rule:nonzero;fill:rgb(94.901961%,94.901961%,94.901961%);fill-opacity:1;" d="M 220 905 L 165 905 C 153.953125 905 145 896.046875 145 885 L 145 775 C 145 763.953125 153.953125 755 165 755 L 275 755 C 286.046875 755 295 763.953125 295 775 L 295 885 C 295 896.046875 286.046875 905 275 905 Z M 220 905 "/>
<path style=" stroke:none;fill-rule:nonzero;fill:rgb(94.901961%,94.901961%,94.901961%);fill-opacity:1;" d="M 490 823.800781 L 489.25 817.601562 L 488.75 811.398438 L 486.75 786.601562 L 486.25 780.398438 L 484.25 755.601562 L 483.75 749.398438 L 481.75 724.601562 L 481.25 718.398438 L 479.25 693.601562 L 478.75 687.398438 L 476.75 662.601562 L 476.25 656.398438 L 474.25 631.601562 L 473.75 625.398438 L 471.75 600.601562 L 471.25 594.398438 L 469.25 569.601562 L 468.75 563.398438 L 466.75 538.601562 L 466.25 532.398438 L 465.75 526.199219 L 465 520 L 535 520 L 534.25 526.199219 L 533.75 532.398438 L 533.25 538.601562 L 531.25 563.398438 L 530.75 569.601562 L 528.75 594.398438 L 528.25 600.601562 L 526.25 625.398438 L 525.75 631.601562 L 523.75 656.398438 L 523.25 662.601562 L 521.25 687.398438 L 520.75 693.601562 L 518.75 718.398438 L 518.25 724.601562 L 516.25 749.398438 L 515.75 755.601562 L 513.75 780.398438 L 513.25 786.601562 L 511.25 811.398438 L 510.75 817.601562 L 510 823.800781 "/>
<path style=" stroke:none;fill-rule:nonzero;fill:rgb(94.901961%,94.901961%,94.901961%);fill-opacity:1;" d="M 500 905 L 445 905 C 433.953125 905 425 896.046875 425 885 L 425 775 C 425 763.953125 433.953125 755 445 755 L 555 755 C 566.046875 755 575 763.953125 575 775 L 575 885 C 575 896.046875 566.046875 905 555 905 Z M 500 905 "/>
<path style=" stroke:none;fill-rule:nonzero;fill:rgb(94.901961%,94.901961%,94.901961%);fill-opacity:1;" d="M 771.472656 819.957031 L 771.976562 811.316406 L 772.582031 802.863281 L 772.929688 794.433594 L 773.121094 785.96875 L 773.113281 777.558594 L 772.882812 769.246094 L 772.359375 761.015625 L 771.546875 752.84375 L 770.4375 744.792969 L 768.988281 736.894531 L 767.179688 729.183594 L 764.980469 721.691406 L 762.394531 714.546875 L 759.332031 707.769531 L 755.796875 701.292969 L 751.851562 695.269531 L 747.480469 689.765625 L 742.617188 684.6875 L 737.390625 680.089844 L 731.699219 675.964844 L 725.644531 672.21875 L 719.183594 668.90625 L 712.394531 665.894531 L 705.285156 663.246094 L 697.921875 660.832031 L 690.273438 658.6875 L 682.390625 656.65625 L 674.324219 654.792969 L 666.023438 652.953125 L 657.601562 651.148438 L 648.957031 649.289062 L 640.136719 647.28125 L 631.226562 645.105469 L 622.03125 642.65625 L 612.601562 639.71875 L 603.066406 636.257812 L 593.351562 632.0625 L 583.644531 626.980469 L 573.972656 620.835938 L 564.671875 613.4375 L 556.101562 604.96875 L 548.347656 595.347656 L 541.898438 584.960938 L 536.601562 574.167969 L 532.542969 563.050781 L 529.558594 552.128906 L 527.421875 541.308594 L 526.019531 530.59375 L 525.011719 520.925781 L 594.988281 519.074219 L 594.441406 526.808594 L 594.5 533.4375 L 594.957031 539.824219 L 595.808594 545.871094 L 597.023438 551.335938 L 598.734375 556.464844 L 600.851562 561.222656 L 603.457031 565.578125 L 606.742188 569.839844 L 610.585938 573.832031 L 615.183594 577.652344 L 620.507812 581.335938 L 626.425781 584.789062 L 632.9375 588.0625 L 639.847656 591.140625 L 647.214844 594.050781 L 654.964844 596.917969 L 662.878906 599.703125 L 671.019531 602.464844 L 679.375 605.289062 L 687.824219 608.207031 L 696.453125 611.28125 L 705.125 614.621094 L 713.90625 618.222656 L 722.703125 622.285156 L 731.46875 626.777344 L 740.078125 631.875 L 748.523438 637.554688 L 756.589844 643.976562 L 764.226562 651.042969 L 771.203125 658.84375 L 777.449219 667.160156 L 782.902344 676.015625 L 787.453125 685.171875 L 791.203125 694.5 L 794.226562 704.027344 L 796.472656 713.605469 L 798.097656 723.09375 L 799.183594 732.539062 L 799.804688 741.925781 L 800.007812 751.230469 L 799.859375 760.453125 L 799.382812 769.632812 L 798.589844 778.71875 L 797.5625 787.683594 L 796.335938 796.570312 L 794.933594 805.457031 L 793.273438 814.269531 L 791.261719 822.851562 "/>
<path style=" stroke:none;fill-rule:nonzero;fill:rgb(94.901961%,94.901961%,94.901961%);fill-opacity:1;" d="M 780 905 L 725 905 C 713.953125 905 705 896.046875 705 885 L 705 775 C 705 763.953125 713.953125 755 725 755 L 835 755 C 846.046875 755 855 763.953125 855 775 L 855 885 C 855 896.046875 846.046875 905 835 905 Z M 780 905 "/>
<path style=" stroke:none;fill-rule:nonzero;fill:rgb(94.901961%,94.901961%,94.901961%);fill-opacity:1;" d="M 625 500 C 625 569.035156 569.035156 625 500 625 C 430.964844 625 375 569.035156 375 500 C 375 430.964844 430.964844 375 500 375 C 569.035156 375 625 430.964844 625 500 Z M 625 500 "/>
<path style=" stroke:none;fill-rule:nonzero;fill:rgb(79.6%,23.5%,20%);fill-opacity:1;" d="M 493.039062 540 C 493.039062 564.851562 472.890625 585 448.039062 585 C 423.1875 585 403.039062 564.851562 403.039062 540 C 403.039062 515.148438 423.1875 495 448.039062 495 C 472.890625 495 493.039062 515.148438 493.039062 540 Z M 493.039062 540 "/>
<path style=" stroke:none;fill-rule:nonzero;fill:rgb(22%,59.6%,14.9%);fill-opacity:1;" d="M 545 450 C 545 474.851562 524.851562 495 500 495 C 475.148438 495 455 474.851562 455 450 C 455 425.148438 475.148438 405 500 405 C 524.851562 405 545 425.148438 545 450 Z M 545 450 "/>
<path style=" stroke:none;fill-rule:nonzero;fill:rgb(58.4%,34.5%,69.8%);fill-opacity:1;" d="M 596.960938 540 C 596.960938 564.851562 576.8125 585 551.960938 585 C 527.109375 585 506.960938 564.851562 506.960938 540 C 506.960938 515.148438 527.109375 495 551.960938 495 C 576.8125 495 596.960938 515.148438 596.960938 540 Z M 596.960938 540 "/>
<path style=" stroke:none;fill-rule:evenodd;fill:rgb(94.901961%,94.901961%,94.901961%);fill-opacity:1;" d="M 980 500 L 979.851562 872.140625 L 979.40625 898.726562 L 978.65625 915.011719 L 977.597656 926.816406 L 976.214844 936.039062 L 974.492188 943.554688 L 972.410156 949.832031 L 969.933594 955.160156 L 967.03125 959.722656 L 963.648438 963.648438 L 959.722656 967.03125 L 955.160156 969.933594 L 949.832031 972.410156 L 943.554688 974.492188 L 936.039062 976.214844 L 926.816406 977.597656 L 915.011719 978.65625 L 898.726562 979.40625 L 872.140625 979.851562 L 511.480469 980 L 127.859375 979.851562 L 101.273438 979.40625 L 84.988281 978.65625 L 73.183594 977.597656 L 63.960938 976.214844 L 56.445312 974.492188 L 50.167969 972.410156 L 44.839844 969.933594 L 40.277344 967.03125 L 36.351562 963.648438 L 32.96875 959.722656 L 30.066406 955.160156 L 27.589844 949.832031 L 25.507812 943.554688 L 23.785156 936.039062 L 22.402344 926.816406 L 21.34375 915.011719 L 20.59375 898.726562 L 20.148438 872.140625 L 20 512.304688 L 20.148438 127.859375 L 20.59375 101.273438 L 21.34375 84.988281 L 22.402344 73.183594 L 23.785156 63.960938 L 25.507812 56.445312 L 27.589844 50.167969 L 30.066406 44.839844 L 32.96875 40.277344 L 36.351562 36.351562 L 40.277344 32.96875 L 44.839844 30.066406 L 50.167969 27.589844 L 56.445312 25.507812 L 63.960938 23.785156 L 73.183594 22.402344 L 84.988281 21.34375 L 101.273438 20.59375 L 127.859375 20.148438 L 487.1875 20 L 872.140625 20.148438 L 898.726562 20.59375 L 915.011719 21.34375 L 926.816406 22.402344 L 936.039062 23.785156 L 943.554688 25.507812 L 949.832031 27.589844 L 955.160156 30.066406 L 959.722656 32.96875 L 963.648438 36.351562 L 967.03125 40.277344 L 969.933594 44.839844 L 972.410156 50.167969 L 974.492188 56.445312 L 976.214844 63.960938 L 977.597656 73.183594 L 978.65625 84.988281 L 979.40625 101.273438 L 979.851562 127.859375 L 980 486.8125 Z M 975 500 L 974.851562 868.261719 L 974.410156 894.574219 L 973.671875 910.6875 L 972.621094 922.367188 L 971.253906 931.496094 L 969.550781 938.933594 L 967.488281 945.144531 L 965.039062 950.417969 L 962.167969 954.933594 L 958.820312 958.820312 L 954.933594 962.167969 L 950.417969 965.039062 L 945.144531 967.488281 L 938.933594 969.550781 L 931.496094 971.253906 L 922.367188 972.621094 L 910.6875 973.671875 L 894.574219 974.410156 L 868.261719 974.851562 L 511.359375 975 L 131.738281 974.851562 L 105.425781 974.410156 L 89.3125 973.671875 L 77.632812 972.621094 L 68.503906 971.253906 L 61.066406 969.550781 L 54.855469 967.488281 L 49.582031 965.039062 L 45.066406 962.167969 L 41.179688 958.820312 L 37.832031 954.933594 L 34.960938 950.417969 L 32.511719 945.144531 L 30.449219 938.933594 L 28.746094 931.496094 L 27.378906 922.367188 L 26.328125 910.6875 L 25.589844 894.574219 L 25.148438 868.261719 L 25 512.175781 L 25.148438 131.738281 L 25.589844 105.425781 L 26.328125 89.3125 L 27.378906 77.632812 L 28.746094 68.503906 L 30.449219 61.066406 L 32.511719 54.855469 L 34.960938 49.582031 L 37.832031 45.066406 L 41.179688 41.179688 L 45.066406 37.832031 L 49.582031 34.960938 L 54.855469 32.511719 L 61.066406 30.449219 L 68.503906 28.746094 L 77.632812 27.378906 L 89.3125 26.328125 L 105.425781 25.589844 L 131.738281 25.148438 L 487.320312 25 L 868.261719 25.148438 L 894.574219 25.589844 L 910.6875 26.328125 L 922.367188 27.378906 L 931.496094 28.746094 L 938.933594 30.449219 L 945.144531 32.511719 L 950.417969 34.960938 L 954.933594 37.832031 L 958.820312 41.179688 L 962.167969 45.066406 L 965.039062 49.582031 L 967.488281 54.855469 L 969.550781 61.066406 L 971.253906 68.503906 L 972.621094 77.632812 L 973.671875 89.3125 L 974.410156 105.425781 L 974.851562 131.738281 L 975 486.949219 Z M 975 500 "/>
</g>
</svg>
